# xmcd
#
# Track frame offsets:
# 150
# 11400
# 24225
# 40275
# 52031
# 66656
# 83193
# 95605
# 112573
# 133985
# 150035
# 162635
# 178985
#
# Disc length: 2559 seconds
#
# Revision: 1
# Processed by: cddbd v1.5.2PL0 Copyright (c) Steve Scherf et al.
# Submitted via: CedeCatalogueitor 2.6.0.6 http://personales.ya.com/cdcatalogueitor
#
DISCID=a609fd0d
DTITLE=Vanova - The Mellow Tapestry
DYEAR=1900
DGENRE=
TTITLE0=S
TTITLE1=A
TTITLE2=G
TTITLE3=H
TTITLE4=J
TTITLE5=Ku
TTITLE6=Y
TTITLE7=Tr
TTITLE8=Ew
TTITLE9=W
TTITLE10=Er
TTITLE11=T
TTITLE12=Yuuuyt
EXTD=
EXTT0=
EXTT1=
EXTT2=
EXTT3=
EXTT4=
EXTT5=
EXTT6=
EXTT7=
EXTT8=
EXTT9=
EXTT10=
EXTT11=
EXTT12=
PLAYORDER=
